<?xml version="1.0" encoding="utf-8"?>
<!-- Generator: Adobe Illustrator 25.4.1, SVG Export Plug-In . SVG Version: 6.00 Build 0)  -->
<svg version="1.1" id="Layer_1" xmlns="http://www.w3.org/2000/svg" xmlns:xlink="http://www.w3.org/1999/xlink" x="0px" y="0px"
	 viewBox="0 0 436.5 202" style="enable-background:new 0 0 436.5 202;" xml:space="preserve">
<style type="text/css">
	.st0{fill:none;}
	.st1{fill:#AD1AAC;}
</style>
<g id="Logo">
	<rect class="st0" width="436.5" height="202"/>
	<path id="R" class="st1" d="M367.8,119.6c0-4,3.3-7.2,7.3-7.2c4,0,7.2,3.3,7.2,7.3c0,4-3.3,7.2-7.3,7.2
		C371.1,126.9,367.9,123.7,367.8,119.6L367.8,119.6z M380.8,119.6c-0.1-3.2-2.7-5.7-5.9-5.6c-3.2,0.1-5.7,2.7-5.6,5.9
		c0.1,3.1,2.6,5.6,5.7,5.6c3.1,0.1,5.7-2.4,5.8-5.5c0,0,0,0,0,0C380.9,119.9,380.9,119.7,380.8,119.6L380.8,119.6z M372.6,116.2h2.8
		c1.1-0.2,2.1,0.6,2.3,1.7c0,0,0,0,0,0c0,0.1,0,0.3,0,0.4c0,0.8-0.5,1.5-1.2,1.9l1.6,2.8h-1.5l-1.4-2.5H374v2.5h-1.4L372.6,116.2z
		 M374,117.3v2.1h1.1c0.5,0.1,1.1-0.3,1.1-0.8c0-0.1,0-0.1,0-0.2c0-0.7-0.4-1-1.1-1L374,117.3z"/>
	<g id="Calcey">
		<path class="st1" d="M54.1,91.4c0-20.3,16.3-36.1,37.2-36.1c11.4,0,22.7,5.1,29.2,13.1l-9.8,9.7c-4.6-6-11.8-9.5-19.4-9.5
			C78.7,68.6,69,78.4,69,91.4c0,12.8,9.8,22.6,22.8,22.6c7.3,0,14.2-3.2,18.8-8.9l9.5,9.4c-6.7,7.9-17.7,12.9-28.8,12.9
			C70.3,127.4,54.1,111.7,54.1,91.4z"/>
		<path class="st1" d="M125.3,111.3c0-9.9,7.9-15.8,21.2-15.8c4.4,0,8.7,0.7,12.8,2.1v-3.8c0-6-3.7-9.1-11-9.1
			c-4.4,0-9.3,1.3-15.9,4.3l-5-10.1c8.2-3.8,15.6-5.6,23.2-5.6c14.1,0,22.2,7,22.2,19.3v33.8h-13.5v-3.7c-4.3,3.2-9.6,4.8-15,4.6
			C133,127.3,125.3,120.8,125.3,111.3z M147.8,117.5c4.1,0.2,8.1-1,11.5-3.4v-7.6c-3.5-1.4-7.2-2.1-11-2c-6.3,0-10,2.5-10,6.5
			S142,117.5,147.8,117.5z"/>
		<path class="st1" d="M183.2,56.4l13.7-2.3v72.3h-13.7V56.4z"/>
		<path class="st1" d="M205.2,100.4c-0.1-14.8,11.8-27,26.6-27.1h0.7c8.2-0.1,16,3.3,21.6,9.3l-8.4,8.9c-3.8-4.2-8-6.3-12.9-6.3
			c-7.9,0-14,6.6-14,15.2s6.2,15,14.3,15c4.7,0,8.7-1.8,12.4-5.8l8.2,8.6c-5.5,5.9-13.2,9.2-21.2,9.2
			C217.1,127.4,205.2,115.6,205.2,100.4z"/>
		<path class="st1" d="M256.9,100.4c-0.2-14.7,11.6-26.8,26.3-27c0,0,0,0,0,0h0.5c14.8,0,25.8,12,25.8,28v3.6h-38.6
			c1.8,6.6,7.8,11.1,14.6,10.9c4.6,0,8.8-1.5,11.5-4.2l9,8.2c-5.9,5-13.4,7.7-21.2,7.5C269.1,127.4,256.9,115.6,256.9,100.4z
			 M296,95.2c-1.5-6.2-6.5-10.5-12.6-10.5c-6.3,0-11.2,4.1-12.7,10.5H296z"/>
		<path class="st1" d="M315.3,147.4v-11.8c1.6,0.3,3.2,0.4,4.8,0.4c4.9,0,8.4-2.4,10.4-7.1l0.8-2L311,74.3h15.1l13,35.5l14.7-35.5
			h14.8l-24,56.2c-5.5,12.7-11.8,17.4-23.1,17.4C319.4,147.9,317.3,147.8,315.3,147.4z"/>
	</g>
</g>
</svg>
